<svg width="64" height="64" viewBox="0 0 64 64" fill="none" xmlns="http://www.w3.org/2000/svg">
<g clip-path="url(#clip0_101_34)">
<path d="M30.5238 43.0119L27.9707 48.8595C26.9892 51.1073 23.8787 51.1073 22.8973 48.8595L20.3441 43.0119C18.072 37.8078 13.9824 33.6655 8.88102 31.4011L1.85346 28.2816C-0.380844 27.2898 -0.380839 24.0395 1.85346 23.0477L8.66153 20.0257C13.8941 17.703 18.0571 13.4071 20.2904 8.02561L22.8766 1.7938C23.8363 -0.518829 27.0316 -0.518835 27.9914 1.7938L30.5776 8.02567C32.8109 13.4071 36.9739 17.703 42.2064 20.0257L49.0145 23.0477C51.2488 24.0395 51.2488 27.2898 49.0145 28.2816L41.9869 31.4011C36.8856 33.6655 32.796 37.8078 30.5238 43.0119Z" fill="#949494"/>
<path d="M54.251 61.4507L53.5329 63.0963C53.0074 64.301 51.3393 64.301 50.8138 63.0963L50.0957 61.4507C48.8158 58.5164 46.5104 56.1803 43.6337 54.9022L41.4215 53.9193C40.2254 53.3879 40.2254 51.6491 41.4215 51.1176L43.5101 50.1897C46.4607 48.8788 48.8074 46.4561 50.0653 43.4222L50.8027 41.6439C51.3166 40.4045 53.0301 40.4045 53.544 41.6439L54.2814 43.4222C55.5393 46.4561 57.8861 48.8788 60.8368 50.1897L62.9251 51.1176C64.1216 51.6491 64.1216 53.3879 62.9251 53.9193L60.713 54.9022C57.8363 56.1803 55.5309 58.5164 54.251 61.4507Z" fill="#949494"/>
</g>
<defs>
<clipPath id="clip0_101_34">
<rect width="64" height="64" fill="white"/>
</clipPath>
</defs>
</svg>
