<svg width="256" height="256" viewBox="0 0 256 256" fill="none" xmlns="http://www.w3.org/2000/svg">
<mask id="mask0_53_21" style="mask-type:luminance" maskUnits="userSpaceOnUse" x="0" y="0" width="256" height="256">
<path d="M256 0H0V256H256V0Z" fill="white"/>
</mask>
<g mask="url(#mask0_53_21)">
<path d="M94.35 1.05078C93.1 1.70078 92.15 2.75078 91.5 4.15078C89.8 7.75076 60.4 126.951 60.65 129.101C60.95 131.501 62.55 133.651 64.7 134.701C66.15 135.401 68.8 135.501 84.2 135.501C94 135.501 102 135.601 102 135.701C102 135.851 92.65 160.951 81.25 191.551C69.85 222.151 60.5 247.8 60.5 248.6C60.5 252.3 64.25 256 67.95 256C72 256 69.25 259.501 133.5 170.951C166.75 125.101 194.25 86.901 194.7 86.101C196.45 82.751 195.1 78.601 191.7 76.651C189.8 75.551 189.4 75.501 173.15 75.501C164 75.501 156.5 75.401 156.5 75.301C156.5 75.201 164.85 61.051 175.05 43.9008C185.25 26.8008 194.05 11.9008 194.55 10.9008C195.05 9.85076 195.5 8.35076 195.5 7.50076C195.5 5.00076 193.75 2.15078 191.5 1.00078C189.6 0.000778139 188.7 0.000778198 142.9 0.000778198C97.25 0.0507781 96.2 0.0507782 94.35 1.05078Z" fill="white"/>
</g>
</svg>
