<svg width="64" height="64" viewBox="0 0 64 64" fill="none" xmlns="http://www.w3.org/2000/svg">
<g clip-path="url(#clip0_101_53)">
<path d="M59.4118 26.1941C60.8638 21.8361 60.3638 17.0621 58.0418 13.0981C54.5498 7.01805 47.5298 3.89005 40.6738 5.36205C37.6238 1.92605 33.2418 -0.0279473 28.6478 5.27059e-05C21.6398 -0.0159473 15.4218 4.49605 13.2658 11.1641C8.76382 12.0861 4.87782 14.9041 2.60382 18.8981C-0.914178 24.9621 -0.112178 32.6061 4.58782 37.8061C3.13582 42.1641 3.63582 46.9381 5.95782 50.9021C9.44982 56.9821 16.4698 60.1101 23.3258 58.6381C26.3738 62.0741 30.7578 64.0281 35.3518 63.9981C42.3638 64.0161 48.5838 59.5001 50.7398 52.8261C55.2418 51.9041 59.1278 49.0861 61.4018 45.0921C64.9158 39.0281 64.1118 31.3901 59.4138 26.1901L59.4118 26.1941ZM35.3558 59.8161C32.5498 59.8201 29.8318 58.8381 27.6778 57.0401C27.7758 56.9881 27.9458 56.8941 28.0558 56.8261L40.7998 49.4661C41.4518 49.0961 41.8518 48.4021 41.8478 47.6521V29.6861L47.2338 32.7961C47.2918 32.8241 47.3298 32.8801 47.3378 32.9441V47.8221C47.3298 54.4381 41.9718 59.8021 35.3558 59.8161ZM9.58782 48.8101C8.18182 46.3821 7.67582 43.5361 8.15782 40.7741C8.25182 40.8301 8.41782 40.9321 8.53582 41.0001L21.2798 48.3601C21.9258 48.7381 22.7258 48.7381 23.3738 48.3601L38.9318 39.3761V45.5961C38.9358 45.6601 38.9058 45.7221 38.8558 45.7621L25.9738 53.2001C20.2358 56.5041 12.9078 54.5401 9.58982 48.8101H9.58782ZM6.23382 20.9921C7.63382 18.5601 9.84382 16.7001 12.4758 15.7341C12.4758 15.8441 12.4698 16.0381 12.4698 16.1741V30.8961C12.4658 31.6441 12.8658 32.3381 13.5158 32.7081L29.0738 41.6901L23.6878 44.8001C23.6338 44.8361 23.5658 44.8421 23.5058 44.8161L10.6218 37.3721C4.89582 34.0561 2.93182 26.7301 6.23182 20.9941L6.23382 20.9921ZM50.4858 31.2901L34.9278 22.3061L40.3138 19.1981C40.3678 19.1621 40.4358 19.1561 40.4958 19.1821L53.3798 26.6201C59.1158 29.9341 61.0818 37.2721 57.7678 43.0081C56.3658 45.4361 54.1578 47.2961 51.5278 48.2641V33.1021C51.5338 32.3541 51.1358 31.6621 50.4878 31.2901H50.4858ZM55.8458 23.2221C55.7518 23.1641 55.5858 23.0641 55.4678 22.9961L42.7238 15.6361C42.0778 15.2581 41.2778 15.2581 40.6298 15.6361L25.0718 24.6201V18.4001C25.0678 18.3361 25.0978 18.2741 25.1478 18.2341L38.0298 10.8021C43.7678 7.49205 51.1038 9.46205 54.4118 15.2021C55.8098 17.6261 56.3158 20.4641 55.8418 23.2221H55.8458ZM22.1438 34.3081L16.7558 31.1981C16.6978 31.1701 16.6598 31.1141 16.6518 31.0501V16.1721C16.6558 9.54805 22.0298 4.18005 28.6538 4.18405C31.4558 4.18405 34.1678 5.16805 36.3218 6.96005C36.2238 7.01205 36.0558 7.10605 35.9438 7.17405L23.1998 14.5341C22.5478 14.9041 22.1478 15.5961 22.1518 16.3461L22.1438 34.3041V34.3081ZM25.0698 28.0001L31.9998 23.9981L38.9298 27.9981V36.0001L31.9998 40.0001L25.0698 36.0001V28.0001Z" fill="#949494"/>
</g>
<defs>
<clipPath id="clip0_101_53">
<rect width="64" height="64" fill="white"/>
</clipPath>
</defs>
</svg>
