<svg width="34" height="64" viewBox="0 0 34 64" fill="none" xmlns="http://www.w3.org/2000/svg">
<path d="M8.5875 0.262744C8.275 0.425244 8.0375 0.687744 7.875 1.03774C7.45 1.93774 0.1 31.7378 0.1625 32.2753C0.2375 32.8753 0.637499 33.4128 1.175 33.6753C1.5375 33.8503 2.2 33.8753 6.05 33.8753C8.5 33.8753 10.5 33.9003 10.5 33.9253C10.5 33.9628 8.1625 40.2378 5.3125 47.8877C2.4625 55.5377 0.125 61.9502 0.125 62.1502C0.125 63.0752 1.0625 64.0002 1.9875 64.0002C3 64.0002 2.3125 64.8752 18.375 42.7377C26.6875 31.2753 33.5625 21.7253 33.675 21.5253C34.1125 20.6878 33.775 19.6503 32.925 19.1628C32.45 18.8878 32.35 18.8753 28.2875 18.8753C26 18.8753 24.125 18.8503 24.125 18.8253C24.125 18.8003 26.2125 15.2628 28.7625 10.9752C31.3125 6.70024 33.5125 2.97524 33.6375 2.72524C33.7625 2.46274 33.875 2.08774 33.875 1.87524C33.875 1.25024 33.4375 0.537744 32.875 0.250244C32.4 0.000244126 32.175 0.000244141 20.725 0.000244141C9.3125 0.0127441 9.05 0.0127441 8.5875 0.262744Z" fill="#949494"/>
</svg>
