<svg width="64" height="64" viewBox="0 0 64 64" fill="none" xmlns="http://www.w3.org/2000/svg">
<g clip-path="url(#clip0_101_28)">
<mask id="mask0_101_28" style="mask-type:luminance" maskUnits="userSpaceOnUse" x="0" y="0" width="64" height="64">
<path d="M64 0H0V64H64V0Z" fill="white"/>
</mask>
<g mask="url(#mask0_101_28)">
<path d="M23.5875 0.262744C23.275 0.425244 23.0375 0.687744 22.875 1.03774C22.45 1.93774 15.1 31.7378 15.1625 32.2753C15.2375 32.8753 15.6375 33.4128 16.175 33.6753C16.5375 33.8503 17.2 33.8753 21.05 33.8753C23.5 33.8753 25.5 33.9003 25.5 33.9253C25.5 33.9628 23.1625 40.2378 20.3125 47.8877C17.4625 55.5377 15.125 61.9502 15.125 62.1502C15.125 63.0752 16.0625 64.0002 16.9875 64.0002C18 64.0002 17.3125 64.8752 33.375 42.7377C41.6875 31.2753 48.5625 21.7253 48.675 21.5253C49.1125 20.6878 48.775 19.6503 47.925 19.1628C47.45 18.8878 47.35 18.8753 43.2875 18.8753C41 18.8753 39.125 18.8503 39.125 18.8253C39.125 18.8003 41.2125 15.2628 43.7625 10.9752C46.3125 6.70024 48.5125 2.97524 48.6375 2.72524C48.7625 2.46274 48.875 2.08774 48.875 1.87524C48.875 1.25024 48.4375 0.537744 47.875 0.250244C47.4 0.000244126 47.175 0.000244141 35.725 0.000244141C24.3125 0.0127441 24.05 0.0127441 23.5875 0.262744Z" fill="#949494"/>
</g>
</g>
<defs>
<clipPath id="clip0_101_28">
<rect width="64" height="64" fill="white"/>
</clipPath>
</defs>
</svg>
